<?xml version="1.0" standalone="no"?>
<!DOCTYPE svg PUBLIC "-//W3C//DTD SVG 20010904//EN"
 "http://www.w3.org/TR/2001/REC-SVG-20010904/DTD/svg10.dtd">
<svg version="1.0" xmlns="http://www.w3.org/2000/svg"
 width="1024.000000pt" height="1024.000000pt" viewBox="0 0 1024.000000 1024.000000"
 preserveAspectRatio="xMidYMid meet">

<g transform="translate(0.000000,1024.000000) scale(0.100000,-0.100000)"
fill="#000000" stroke="none">
<path d="M4860 9620 c-712 -66 -1418 -323 -1965 -714 -151 -108 -390 -308
-390 -327 0 -8 -8 -13 -19 -11 -13 3 -17 -1 -13 -12 3 -8 -2 -20 -11 -28 -15
-12 -16 -11 -3 5 7 9 10 17 5 17 -11 0 -244 -232 -244 -243 0 -4 6 -5 13 -1 8
5 7 2 -2 -9 -8 -10 -16 -15 -19 -12 -9 9 -32 -17 -25 -29 3 -6 2 -8 -2 -3 -5
4 -17 0 -27 -10 -20 -18 -25 -38 -5 -27 6 4 3 -2 -7 -14 -23 -26 -34 -29 -15
-4 7 9 -4 1 -24 -17 -34 -32 -51 -61 -27 -46 16 10 11 -1 -7 -16 -14 -12 -16
-12 -9 1 4 8 -15 -10 -43 -40 -48 -52 -65 -80 -39 -64 7 4 8 3 4 -5 -4 -6 -11
-9 -16 -6 -17 11 -236 -298 -224 -317 4 -6 3 -8 -3 -5 -20 13 -207 -303 -315
-530 -471 -992 -582 -2132 -313 -3218 152 -617 442 -1210 822 -1685 131 -165
458 -494 608 -614 341 -271 768 -507 1190 -655 389 -137 900 -233 1402 -262
474 -27 959 38 1433 193 950 311 1735 959 2242 1853 412 725 626 1492 645
2315 17 750 -144 1495 -462 2130 -247 495 -525 845 -1005 1268 -787 692 -1497
1031 -2365 1128 -164 18 -628 27 -765 14z m-33 -106 c-3 -3 -12 -4 -19 -1 -8
3 -5 6 6 6 11 1 17 -2 13 -5z m-152 -24 c-156 -28 -311 -58 -375 -75 -30 -8
-100 -25 -155 -39 -144 -36 -362 -109 -515 -172 -166 -69 -501 -252 -654 -358
-289 -200 -592 -472 -818 -736 -50 -58 -111 -129 -137 -159 -25 -30 -60 -75
-78 -100 -18 -25 -55 -77 -82 -116 -224 -311 -451 -752 -553 -1070 -10 -33
-23 -69 -28 -80 -15 -35 -57 -185 -95 -335 -19 -80 -40 -161 -45 -180 -5 -19
-16 -87 -25 -150 -9 -63 -18 -128 -21 -145 -7 -38 -34 -270 -37 -312 -3 -56
-23 -37 -20 20 6 136 50 456 89 642 32 151 113 448 149 545 7 19 25 69 40 110
159 437 422 882 764 1290 74 88 265 301 288 321 10 8 61 55 113 103 123 114
254 220 412 333 493 353 1123 598 1738 676 14 1 54 3 90 4 61 2 59 1 -45 -17z
m-760 -100 c-11 -5 -27 -9 -35 -9 -9 0 -8 4 5 9 11 5 27 9 35 9 9 0 8 -4 -5
-9z m-220 -79 c-6 -5 -21 -11 -35 -15 -21 -5 -20 -3 5 9 35 17 42 18 30 6z
m-185 -75 c0 -3 -34 -21 -75 -42 -41 -21 -75 -40 -75 -44 0 -3 -17 -12 -37
-19 -21 -8 -50 -22 -65 -32 -14 -11 -66 -40 -115 -65 -48 -26 -95 -52 -103
-59 -26 -21 -44 -29 -36 -17 4 7 28 24 54 39 26 14 81 47 122 72 71 43 315
171 325 171 3 0 5 -2 5 -4z m1368 -151 c17 -8 32 -15 32 -17 0 -2 -21 -2 -47
0 -44 3 -54 -1 -115 -45 -114 -82 -310 -254 -393 -342 -27 -30 -124 -129 -215
-221 -91 -92 -222 -227 -292 -301 -70 -74 -172 -180 -225 -235 -54 -56 -134
-140 -178 -188 -44 -48 -213 -222 -375 -386 -162 -164 -315 -322 -340 -351
-86 -100 -150 -184 -150 -196 0 -6 -6 -18 -13 -25 -65 -67 -172 -308 -191
-432 -4 -21 -8 -42 -11 -46 -5 -8 -14 -133 -20 -280 -5 -138 -15 -1413 -18
-2460 l-3 -835 -23 -37 c-25 -41 -27 -41 -78 3 -32 27 -103 125 -124 172 -7
15 -16 27 -21 27 -4 0 -8 5 -8 10 0 6 -17 37 -39 68 -75 112 -113 175 -168
280 -30 59 -59 112 -65 117 -21 22 83 -187 147 -295 83 -141 77 -130 72 -130
-3 0 -38 55 -77 121 -222 372 -410 878 -484 1304 -51 294 -60 408 -61 770 0
366 13 522 71 830 115 616 352 1163 711 1638 269 357 569 652 920 904 431 311
1025 543 1513 593 102 10 223 3 268 -15z m707 5 c49 -7 42 -8 -35 -4 -53 3
-107 0 -120 -5 -20 -8 -9 -10 52 -10 61 -1 89 -6 133 -26 31 -14 59 -24 63
-21 4 2 21 -1 37 -9 17 -7 57 -19 90 -26 33 -7 89 -24 125 -37 36 -13 76 -26
90 -29 14 -3 27 -9 30 -12 3 -3 32 -15 65 -26 60 -19 148 -62 195 -95 14 -9
35 -21 48 -24 12 -4 22 -12 22 -17 0 -6 4 -8 9 -5 4 3 25 -10 46 -29 21 -18
41 -33 44 -32 9 2 56 -15 61 -23 9 -11 98 -70 107 -70 5 0 18 -8 29 -18 11
-10 41 -31 67 -46 26 -15 47 -31 47 -35 0 -3 12 -12 28 -18 24 -12 157 -119
237 -192 82 -76 274 -287 288 -318 6 -13 14 -23 19 -23 13 0 57 -52 58 -68 0
-7 7 -15 15 -18 8 -4 13 -10 10 -14 -3 -4 2 -21 10 -36 8 -16 15 -34 15 -40 0
-6 9 -21 20 -34 12 -13 18 -30 16 -37 -3 -7 -1 -13 5 -13 6 0 8 -4 4 -9 -3 -6
3 -14 12 -20 10 -6 14 -11 10 -11 -5 0 0 -16 12 -36 12 -19 15 -32 9 -28 -7 5
-3 -4 9 -19 12 -16 20 -39 19 -57 -2 -21 1 -27 10 -19 8 7 13 3 17 -13 8 -27
1 -38 -23 -38 -10 0 -21 -4 -24 -8 -7 -11 10 -36 20 -29 5 3 18 -2 29 -10 19
-14 18 -15 -12 -8 -29 6 -33 4 -33 -14 0 -11 -5 -23 -11 -27 -8 -5 -6 -10 5
-16 14 -8 15 -12 5 -25 -10 -12 -10 -16 2 -23 17 -11 19 -32 4 -42 -6 -5 -5
-8 3 -8 7 0 10 -5 7 -10 -4 -6 1 -22 9 -35 19 -28 10 -34 -9 -8 -12 16 -15 16
-33 -7 -18 -22 -19 -25 -4 -29 17 -3 34 -21 53 -55 7 -11 7 -16 1 -12 -6 3
-12 3 -15 -1 -2 -5 -2 -3 -1 4 3 12 -25 27 -34 18 -3 -3 0 -5 6 -5 7 0 11 -14
9 -35 -1 -19 -6 -35 -10 -35 -5 0 -5 -5 -1 -11 4 -8 9 -7 15 2 4 7 5 17 3 21
-3 4 0 8 5 8 6 0 11 -12 11 -27 0 -16 4 -34 9 -42 7 -11 13 -8 26 13 10 14 22
26 29 25 7 0 6 -2 -1 -6 -7 -2 -13 -9 -13 -14 0 -12 -32 -49 -43 -49 -4 0 -6
3 -3 8 2 4 -1 15 -8 24 -11 15 -15 16 -32 3 -18 -13 -18 -14 4 -8 24 6 29 -6
10 -26 -11 -10 -10 -11 4 -6 13 5 15 2 11 -16 -4 -15 -3 -20 6 -15 6 4 9 12 6
17 -4 5 -2 9 3 9 6 0 13 -7 16 -16 4 -9 2 -13 -5 -8 -8 4 -9 -1 -4 -15 4 -12
2 -21 -4 -21 -6 0 -11 -5 -11 -11 0 -5 5 -7 10 -4 6 3 10 1 10 -4 0 -6 -4 -11
-9 -11 -5 0 -11 -8 -13 -18 -3 -11 0 -19 7 -19 7 0 11 6 8 14 -3 7 -1 13 5 13
11 0 11 -18 -2 -38 -4 -7 -5 -20 -2 -29 4 -11 2 -14 -9 -9 -8 3 -15 1 -15 -4
0 -6 4 -10 9 -10 5 0 12 -14 16 -31 4 -17 13 -33 21 -36 20 -8 7 -22 -16 -18
-12 2 -18 0 -15 -6 4 -5 13 -9 21 -9 8 0 17 -7 20 -15 4 -8 10 -12 15 -9 5 3
6 -3 2 -13 -6 -16 -5 -17 13 -3 17 14 18 14 6 -2 -11 -14 -17 -15 -32 -6 -10
6 -16 18 -13 25 3 7 0 13 -5 13 -6 0 -10 -15 -9 -34 2 -25 5 -32 14 -25 8 7
11 5 9 -8 -2 -11 -10 -17 -22 -15 -15 2 -16 1 -5 -7 9 -6 11 -16 6 -27 -6 -18
-8 -17 -16 4 -4 12 -14 22 -21 22 -8 0 -9 -3 -3 -8 13 -9 13 -22 0 -42 -8 -13
-7 -13 8 -1 14 11 18 11 23 -3 3 -9 4 -23 0 -31 -3 -8 -1 -15 4 -15 6 0 10 5
10 10 0 16 17 11 24 -7 4 -10 4 -14 0 -10 -11 11 -43 -23 -37 -39 3 -8 9 -14
15 -14 5 0 7 4 4 8 -3 5 1 9 9 9 10 0 10 -6 -3 -26 -9 -14 -21 -29 -27 -33 -6
-5 -6 -8 2 -8 7 0 10 -7 7 -15 -4 -8 -11 -12 -17 -8 -6 3 -7 1 -3 -6 4 -6 12
-9 17 -6 9 6 12 -3 12 -36 0 -12 7 -16 23 -14 13 1 22 -1 20 -4 -7 -12 14 -52
25 -46 6 4 8 14 5 22 -3 8 -1 11 4 8 24 -15 7 -41 -22 -36 -5 0 -8 -4 -8 -10
0 -5 -4 -8 -10 -4 -5 3 -6 13 -3 23 3 9 3 14 -1 10 -5 -4 -10 -24 -12 -44 -2
-21 -8 -41 -15 -45 -6 -3 -9 -13 -6 -20 3 -9 10 -2 19 18 11 26 17 30 26 21 9
-9 12 -9 12 1 0 7 5 9 10 6 13 -8 3 -25 -15 -25 -21 0 -67 -49 -58 -63 4 -7 0
-7 -10 1 -14 12 -16 11 -12 -7 2 -12 0 -19 -4 -16 -5 2 -19 -4 -31 -15 -13
-11 -27 -20 -32 -20 -4 0 -8 -9 -8 -20 0 -10 -6 -23 -13 -27 -7 -4 -18 -20
-24 -35 -32 -72 -38 -24 -41 304 -2 120 -7 253 -13 295 -23 171 -25 194 -18
199 4 2 15 -6 23 -18 9 -12 16 -16 16 -9 0 11 3 11 17 0 15 -13 15 -12 2 11
-7 14 -13 28 -14 32 0 3 -10 18 -23 33 -13 15 -25 36 -28 48 -2 12 -10 25 -19
29 -8 5 -15 13 -15 18 0 5 -16 24 -35 43 -19 19 -32 36 -29 40 3 3 -3 8 -14
11 -19 6 -48 52 -43 70 1 5 -5 6 -14 2 -9 -3 -13 -2 -10 4 3 6 0 10 -7 11 -10
0 -11 2 0 6 9 3 5 12 -13 28 -13 13 -21 27 -15 30 9 6 -46 65 -61 65 -5 0 -9
5 -9 11 0 5 5 7 11 3 22 -13 -23 45 -46 60 -27 18 -49 22 -25 5 13 -9 13 -10
0 -6 -8 2 -15 10 -15 18 0 20 -18 37 -32 32 -6 -2 -35 12 -63 31 -29 20 -55
36 -59 37 -3 0 -14 2 -23 4 -10 2 -26 -12 -43 -37 -14 -21 -31 -38 -38 -35
-19 6 -28 85 -23 205 2 61 1 112 -4 112 -4 0 -4 17 1 38 12 52 11 135 -1 127
-5 -3 -10 1 -10 9 0 9 3 16 8 16 23 0 8 322 -21 463 -9 38 -11 70 -6 73 5 3 7
10 4 15 -4 5 -1 9 5 9 23 0 -23 57 -56 69 -72 26 -110 28 -254 16 -96 -7 -174
-24 -205 -43 -5 -4 -16 -7 -24 -9 -7 -1 -26 -14 -42 -29 -16 -15 -29 -24 -29
-18 0 5 -10 -6 -21 -23 -12 -18 -25 -33 -30 -33 -5 0 -9 -7 -9 -15 0 -8 -4
-15 -10 -15 -5 0 -9 -3 -8 -7 5 -16 -22 -73 -33 -73 -8 0 -7 -4 3 -12 14 -12
14 -15 -7 -35 l-24 -23 -33 33 c-58 58 -118 135 -121 157 -2 11 -10 29 -18 39
-23 29 -39 60 -39 76 0 8 -6 15 -13 15 -18 0 -61 46 -53 58 3 5 -10 25 -28 45
-19 21 -32 37 -29 37 8 0 -79 101 -112 132 -16 15 -42 32 -57 39 -16 6 -28 15
-28 20 0 5 -9 9 -21 9 -11 0 -28 4 -38 10 -34 18 -73 19 -120 3 -48 -16 -133
-69 -140 -87 -2 -6 -41 -48 -85 -94 -105 -109 -97 -100 -138 -154 -20 -26 -38
-45 -40 -42 -3 2 -35 -29 -72 -68 -37 -40 -113 -120 -169 -178 -56 -58 -131
-138 -167 -179 -36 -41 -78 -88 -95 -106 -16 -18 -70 -76 -120 -129 -49 -54
-106 -114 -125 -135 -19 -20 -73 -79 -120 -131 -47 -51 -90 -98 -95 -104 -6
-6 -42 -47 -80 -91 -38 -44 -74 -83 -81 -87 -6 -4 -40 -38 -75 -75 -35 -37
-83 -86 -106 -108 -24 -23 -43 -47 -43 -55 0 -7 -2 -11 -5 -8 -3 3 -32 -22
-63 -55 -31 -34 -120 -125 -197 -203 -165 -167 -181 -187 -234 -285 -45 -84
-77 -192 -87 -294 -3 -38 -8 -81 -10 -95 -2 -14 -6 -126 -9 -250 -9 -410 -17
-454 -89 -490 -22 -12 -50 -32 -62 -46 -19 -23 -22 -24 -35 -8 -9 11 -16 53
-20 118 l-5 101 -2 -113 c-2 -86 2 -120 14 -143 8 -17 14 -33 11 -35 -10 -10
-38 75 -40 121 -4 88 13 666 24 795 12 144 41 245 119 405 80 165 142 240 525
635 94 96 220 227 280 290 61 63 115 117 120 119 6 2 1 -7 -11 -20 -23 -26
-37 -49 -31 -49 6 0 57 49 58 54 0 15 64 74 73 69 6 -3 8 -3 4 2 -4 4 -3 14 3
22 8 9 8 13 1 13 -6 0 -27 -20 -48 -45 -20 -25 -39 -43 -42 -40 -8 8 139 154
152 152 6 -1 10 3 9 10 -2 7 3 10 10 7 12 -4 70 53 192 191 28 31 61 68 75 83
83 89 338 361 360 383 14 14 68 72 120 129 52 57 116 123 142 148 26 24 46 50
45 56 -1 6 4 10 11 8 8 -1 11 2 7 9 -5 7 -17 1 -36 -17 -15 -15 -26 -31 -23
-35 2 -4 0 -10 -5 -14 -6 -3 -8 4 -6 15 8 40 292 329 395 400 72 51 215 70
365 50z m108 -17 c-7 -2 -19 -2 -25 0 -7 3 -2 5 12 5 14 0 19 -2 13 -5z
m-2864 -247 c-2 -2 -15 -9 -29 -15 -24 -11 -24 -11 -6 3 16 13 49 24 35 12z
m-94 -71 c-16 -14 -34 -25 -38 -25 -5 0 -6 -3 -4 -7 3 -5 -18 -23 -46 -41
l-52 -32 40 36 c49 43 116 94 124 94 3 -1 -7 -12 -24 -25z m-146 -117 c-2 -2
-20 -16 -39 -33 l-35 -30 34 37 c19 21 37 36 39 33 3 -3 3 -6 1 -7z m2221 -11
c0 -2 -10 -12 -22 -23 l-23 -19 19 23 c18 21 26 27 26 19z m-2430 -180 c0 -2
-10 -12 -22 -23 l-23 -19 19 23 c18 21 26 27 26 19z m-60 -60 c0 -2 -10 -12
-22 -23 l-23 -19 19 23 c18 21 26 27 26 19z m2968 -109 c-6 -15 -17 -28 -26
-29 -11 0 -13 -2 -4 -6 8 -3 5 -10 -10 -23 -13 -9 -27 -18 -33 -18 -5 -1 -12
-10 -15 -22 -3 -12 -9 -21 -14 -20 -5 1 -13 -5 -18 -14 -5 -9 -14 -13 -20 -10
-7 4 -8 2 -4 -4 6 -10 -70 -100 -127 -151 -33 -29 -71 -67 -129 -129 -32 -33
-58 -58 -58 -54 0 6 -77 -76 -82 -88 -2 -3 -17 -16 -35 -28 -22 -16 -30 -28
-26 -39 5 -12 2 -15 -10 -10 -9 3 -17 2 -17 -4 0 -17 -82 -99 -99 -99 -14 0
-14 -1 -1 -10 9 -6 10 -10 3 -10 -17 0 -313 -300 -324 -328 -5 -13 -13 -20
-19 -17 -5 3 -10 -1 -10 -9 0 -9 -7 -16 -17 -16 -9 0 -13 -3 -10 -7 4 -3 -7
-15 -24 -25 -16 -10 -28 -22 -25 -27 3 -5 -4 -11 -15 -14 -12 -3 -18 -10 -14
-17 4 -7 -1 -13 -12 -16 -11 -3 -35 -23 -54 -45 -19 -22 -45 -50 -59 -62 -45
-40 -173 -171 -266 -272 -49 -55 -137 -147 -193 -205 -101 -103 -130 -140
-172 -220 -27 -51 -43 -53 -19 -2 10 20 21 51 24 69 4 17 14 37 22 44 8 6 14
17 14 23 0 12 322 338 340 344 5 2 10 9 10 16 0 11 11 21 81 78 11 9 19 19 17
22 -2 3 29 38 67 78 39 40 129 134 200 208 72 74 195 205 275 290 80 85 195
206 256 270 61 63 124 129 140 146 104 112 369 388 418 436 40 39 66 57 81 56
20 -2 21 -5 13 -30z m1117 -356 c-14 -72 -34 -216 -30 -221 2 -4 -3 -29 -10
-57 -14 -55 -58 -107 -93 -112 -27 -4 -30 21 -4 40 9 7 29 32 44 54 21 32 24
44 15 54 -9 10 -9 11 2 5 11 -6 13 -2 7 18 -3 14 -1 29 4 32 6 4 10 12 9 18
-1 7 0 19 4 27 3 8 11 45 17 83 7 37 16 67 21 67 5 0 5 7 2 17 -4 11 -3 14 5
9 7 -4 10 -19 7 -34z m-1183 -349 c58 -26 114 -77 120 -108 3 -14 2 -25 -1
-25 -3 0 -5 -37 -3 -81 3 -76 1 -86 -29 -146 -52 -103 -139 -164 -233 -166
-89 -1 -178 12 -196 28 -34 31 -73 128 -78 196 -6 85 16 152 69 213 95 108
230 142 351 89z m2384 -227 c2 -13 1 -13 -3 -1 -2 8 -9 13 -14 10 -5 -4 -9 -1
-9 5 0 18 25 5 26 -14z m-1 -35 c-6 -5 -25 10 -25 20 0 5 6 4 14 -3 8 -7 12
-15 11 -17z m12 -43 c-15 -9 -19 -4 -11 16 5 14 9 15 15 5 5 -8 3 -17 -4 -21z
m-2110 -28 c-3 -11 -2 -20 2 -20 4 0 8 -7 8 -15 0 -8 -4 -15 -9 -15 -5 0 -7
-4 -4 -9 8 -12 -27 -88 -63 -138 -16 -22 -28 -44 -25 -47 2 -3 2 -4 -1 -2 -3
2 -18 -8 -34 -23 -58 -55 -115 -91 -146 -91 -8 0 -15 -4 -15 -10 0 -5 -8 -10
-18 -10 -10 0 -22 -3 -26 -7 -4 -4 -32 -8 -62 -8 -39 -1 -52 1 -44 9 6 6 14
11 18 12 4 0 34 8 67 18 76 23 173 85 229 147 43 48 106 165 106 198 0 17 8
31 18 31 2 0 2 -9 -1 -20z m2110 4 c-3 -3 -12 -4 -19 -1 -8 3 -5 6 6 6 11 1
17 -2 13 -5z m3 -18 c0 -3 -4 -8 -10 -11 -5 -3 -10 -1 -10 4 0 6 5 11 10 11 6
0 10 -2 10 -4z m-523 -14 c8 -5 9 -13 3 -22 -8 -13 -10 -13 -10 2 0 9 -6 19
-12 21 -7 3 -8 6 -3 6 6 0 15 -3 22 -7z m487 -71 c4 -5 -3 -7 -14 -4 -23 6
-26 13 -6 13 8 0 17 -4 20 -9z m23 -27 c-3 -3 -12 -4 -19 -1 -8 3 -5 6 6 6 11
1 17 -2 13 -5z m27 -90 c5 -13 4 -14 -7 -6 -8 7 -18 8 -22 4 -5 -4 -5 -1 -1 6
10 17 23 15 30 -4z m-21 -29 c-3 -9 -8 -14 -10 -11 -3 3 -2 9 2 15 9 16 15 13
8 -4z m37 -55 c0 -5 -5 -10 -11 -10 -5 0 -7 5 -4 10 3 6 8 10 11 10 2 0 4 -4
4 -10z m10 -42 c0 -6 -6 -5 -15 2 -8 7 -15 14 -15 16 0 2 7 1 15 -2 8 -4 15
-11 15 -16z m37 -10 c-3 -8 -6 -5 -6 6 -1 11 2 17 5 13 3 -3 4 -12 1 -19z
m-57 -188 c11 -7 11 -10 2 -10 -7 0 -10 -4 -7 -10 3 -5 2 -10 -3 -10 -5 0 -12
9 -15 20 -6 22 0 25 23 10z m10 -195 c-7 -9 -15 -13 -17 -11 -7 7 7 26 19 26
6 0 6 -6 -2 -15z m-5 -43 c-3 -3 -11 0 -18 7 -9 10 -8 11 6 5 10 -3 15 -9 12
-12z m29 -27 c-4 -8 -7 -15 -9 -15 -2 0 -5 7 -9 15 -3 9 0 15 9 15 9 0 12 -6
9 -15z m-7 -31 c-3 -3 -12 -4 -19 -1 -8 3 -5 6 6 6 11 1 17 -2 13 -5z m37 -33
c3 -5 -1 -11 -9 -14 -9 -4 -12 -1 -8 9 6 16 10 17 17 5z m-6650 -973 c-1 -13
-3 -23 -3 -23 -1 0 -4 -51 -6 -114 -3 -63 -8 -117 -11 -120 -6 -6 -4 261 3
272 9 15 20 6 17 -15z m7072 -8 c77 0 94 -3 94 -15 0 -8 -9 -15 -19 -15 -11 0
-22 -4 -25 -9 -6 -9 -84 -30 -141 -37 -176 -22 -312 -31 -645 -39 -107 -3
-226 -8 -263 -11 -37 -3 -114 -7 -170 -9 -255 -11 -348 -15 -432 -20 -322 -18
-520 -28 -612 -29 -44 0 -79 -4 -76 -8 2 -5 -1 -8 -6 -8 -6 0 -11 5 -11 11 0
7 -7 8 -17 4 -30 -12 -61 -15 -253 -20 -102 -3 -219 -7 -260 -10 -41 -2 -154
-7 -250 -10 -96 -3 -202 -7 -235 -10 -101 -8 -224 -15 -345 -21 -63 -2 -167
-7 -230 -10 -63 -4 -155 -7 -205 -9 -222 -6 -330 -17 -372 -38 -37 -17 -44
-18 -59 -6 -15 12 -16 11 -10 -11 7 -24 6 -24 -8 -6 -33 42 -8 180 42 233 25
28 34 30 121 36 52 4 96 5 98 3 2 -2 -33 -8 -79 -14 -131 -16 442 -5 1182 23
69 3 384 7 700 10 985 10 1361 15 1465 20 153 8 327 14 590 21 132 4 242 9
245 11 3 3 25 2 49 -1 24 -3 86 -6 137 -6z m-3168 -37 c-16 -2 -40 -2 -55 0
-16 2 -3 4 27 4 30 0 43 -2 28 -4z m-295 -10 c-7 -2 -21 -2 -30 0 -10 3 -4 5
12 5 17 0 24 -2 18 -5z m135 0 c-16 -2 -40 -2 -55 0 -16 2 -3 4 27 4 30 0 43
-2 28 -4z m-780 -20 c-32 -2 -84 -2 -115 0 -32 2 -6 3 57 3 63 0 89 -1 58 -3z
m-2968 -197 c0 -3 -4 -8 -10 -11 -5 -3 -10 -1 -10 4 0 6 5 11 10 11 6 0 10 -2
10 -4z m-13 -58 c-3 -7 -5 -2 -5 12 0 14 2 19 5 13 2 -7 2 -19 0 -25z m2184
-41 c-13 -13 -26 -3 -16 12 3 6 11 8 17 5 6 -4 6 -10 -1 -17z m-11 -22 c0 -13
-39 -49 -72 -66 -45 -23 -51 -11 -8 15 17 10 36 26 43 37 10 17 37 27 37 14z
m-120 -74 c0 -13 -39 -25 -78 -24 -40 2 -56 12 -21 14 48 3 70 6 76 13 9 9 23
7 23 -3z m5025 -197 c12 -5 13 -9 5 -14 -19 -11 -30 -78 -30 -182 0 -97 -11
-142 -36 -152 -7 -3 -139 -8 -291 -12 -153 -4 -286 -11 -295 -16 -16 -8 -18
-25 -18 -138 0 -99 3 -128 13 -125 6 2 131 6 277 9 239 6 263 5 245 -9 -17
-13 -20 -33 -26 -151 -4 -78 -12 -141 -18 -147 -8 -8 -95 -15 -244 -20 -128
-5 -239 -12 -247 -16 -13 -7 -15 -49 -18 -267 -2 -142 -7 -274 -11 -294 -6
-31 -11 -36 -46 -42 -22 -4 -109 -7 -193 -7 -133 -1 -153 1 -159 16 -3 9 -1
343 6 742 14 862 3 792 126 803 44 5 229 12 410 16 473 12 531 13 550 6z
m-1754 -24 c57 -11 105 -23 108 -27 3 -3 -4 -3 -17 0 -12 3 -20 1 -16 -4 3 -5
10 -9 15 -9 5 0 38 -18 72 -40 116 -73 205 -209 255 -388 24 -90 26 -111 26
-287 0 -226 -15 -298 -96 -465 -41 -86 -64 -118 -122 -176 -80 -80 -172 -144
-250 -173 -117 -44 -316 -53 -442 -21 -117 30 -179 65 -264 150 -60 59 -85 95
-122 170 -66 133 -88 226 -95 390 -7 162 5 245 54 394 126 378 476 568 894
486z m174 -50 c3 -6 -1 -7 -9 -4 -18 7 -21 14 -7 14 6 0 13 -4 16 -10z m-1585
-24 c53 -14 170 -63 170 -71 0 -3 -8 -1 -17 2 -10 4 1 -14 24 -40 171 -195
111 -525 -123 -679 -65 -43 -81 -71 -45 -83 16 -5 94 -120 110 -160 2 -5 48
-102 103 -215 55 -113 102 -217 105 -232 l6 -28 -79 -1 c-44 0 -88 -2 -99 -4
-11 -2 -66 -5 -123 -6 -90 -1 -105 1 -117 17 -8 11 -42 80 -76 154 -34 74 -93
197 -131 273 -80 161 -99 179 -188 175 l-55 -3 -6 -80 c-4 -44 -7 -174 -8
-289 -1 -114 -6 -216 -11 -226 -8 -15 -32 -18 -167 -24 -87 -4 -160 -12 -164
-17 -3 -5 -14 0 -24 11 -18 20 -18 42 -6 713 6 381 14 711 18 735 3 23 13 53
23 65 18 21 26 22 257 28 336 9 556 4 623 -15z m-1555 -15 c55 -5 134 -19 175
-31 69 -20 81 -28 146 -94 80 -82 98 -128 110 -271 12 -154 -35 -290 -136
-399 -101 -108 -206 -144 -449 -154 l-156 -7 -6 -40 c-4 -22 -7 -101 -8 -175
-2 -174 -11 -302 -23 -317 -13 -16 -61 -22 -209 -27 -124 -5 -126 -5 -139 18
-12 24 -8 279 19 1193 9 322 -4 301 190 305 75 2 192 4 261 6 69 1 170 -2 225
-7z m5135 -573 c-11 -40 -25 -82 -29 -93 -15 -35 -39 -97 -67 -175 -91 -251
-150 -387 -243 -560 -179 -332 -385 -619 -634 -884 -228 -242 -464 -441 -764
-641 -61 -41 -114 -75 -117 -75 -3 0 -25 -13 -48 -30 -22 -16 -45 -30 -50 -30
-6 0 -22 -8 -36 -19 -23 -16 -130 -75 -212 -117 -59 -30 -161 -74 -187 -80
-15 -4 -30 -10 -33 -14 -3 -4 -54 -24 -115 -44 -60 -20 -117 -40 -125 -43 -8
-3 -19 -7 -25 -9 -5 -1 -57 -16 -115 -34 -58 -17 -123 -33 -144 -36 -22 -3
-48 -10 -58 -15 -10 -6 -23 -7 -28 -4 -6 3 -10 2 -10 -3 0 -5 -10 -8 -22 -7
-13 1 -46 -6 -75 -16 -28 -9 -53 -15 -56 -13 -2 3 -26 0 -53 -6 -71 -17 -166
-22 -159 -9 4 6 20 7 36 4 17 -4 29 -2 29 3 0 6 11 9 25 8 14 -2 35 2 47 8 13
6 35 11 50 11 15 -1 25 2 23 6 -3 3 14 9 38 12 92 13 125 20 204 43 45 13 96
26 114 29 18 3 36 8 41 11 4 3 17 7 27 9 27 5 179 54 221 72 20 8 42 15 50 17
8 2 26 8 40 14 14 6 70 30 125 54 136 60 291 141 403 212 23 14 44 26 48 26
21 0 302 199 459 325 148 119 174 142 367 337 221 222 415 460 533 654 84 139
125 207 125 209 0 1 30 55 66 121 69 126 114 222 171 369 19 50 45 117 58 150
12 33 26 71 30 85 4 14 11 30 15 35 4 6 15 37 24 70 22 78 48 147 53 141 2 -2
-5 -37 -17 -78z m-1936 -1175 c-7 -16 -9 -91 -17 -434 l-2 -117 159 4 c163 3
197 -2 195 -34 0 -10 -3 -12 -6 -4 -7 19 -23 4 -23 -24 l0 -24 -157 -1 c-182
-2 -200 -3 -230 -13 -42 -14 -46 22 -39 343 4 198 9 298 17 307 7 9 31 14 61
14 44 0 49 -2 42 -17z m-4512 -23 c22 -39 15 -39 -12 0 -12 17 -18 30 -13 30
4 0 16 -14 25 -30z m1468 20 c14 -4 20 -8 13 -9 -12 -1 68 -133 212 -353 39
-59 72 -107 75 -107 3 -1 7 88 9 197 1 109 6 213 10 232 7 34 8 35 60 38 47 3
52 1 48 -15 -9 -31 -16 -159 -23 -383 -5 -199 -7 -216 -26 -232 -11 -10 -28
-18 -38 -18 -10 0 -20 -5 -22 -10 -7 -21 -66 57 -165 215 -55 88 -110 179
-122 203 -25 49 -36 53 -37 15 -8 -252 -17 -391 -29 -408 -7 -12 -25 -22 -44
-23 l-31 -2 1 277 c1 328 4 362 39 380 28 14 34 14 70 3z m1911 6 c3 -3 3 -23
1 -45 l-4 -41 -57 0 c-72 0 -162 -11 -157 -19 2 -3 1 -125 -2 -270 l-7 -264
-35 -12 c-60 -21 -60 -19 -60 244 0 130 4 253 9 274 l9 37 -104 0 c-70 0 -104
-4 -104 -11 0 -8 -5 -8 -15 1 -18 15 -20 74 -2 88 7 6 30 12 52 15 57 5 471 8
476 3z m498 -13 c13 -12 39 -72 70 -163 28 -80 75 -209 105 -288 31 -79 56
-152 56 -163 0 -15 -8 -19 -35 -20 -19 -1 -40 -2 -46 -3 -13 -1 -70 139 -61
148 7 7 -3 8 -168 8 l-135 0 -34 -75 c-32 -69 -37 -76 -70 -82 -20 -4 -38 -8
-40 -8 -2 -1 -7 7 -11 19 -6 15 8 60 50 160 31 76 85 207 119 289 81 195 81
195 135 195 27 0 52 -7 65 -17z m-2817 -12 c4 -3 3 -24 -1 -46 -5 -22 -12
-159 -15 -304 -4 -167 -11 -270 -18 -278 -6 -7 -21 -13 -35 -13 -14 0 -21 -4
-18 -10 11 -17 -7 -11 -21 8 -15 19 -16 172 -5 472 6 163 6 165 31 177 23 11
66 8 82 -6z m1449 8 c49 -15 88 -57 99 -104 13 -58 6 -67 -65 -77 -15 -2 -21
4 -23 23 -5 46 -45 73 -116 77 -55 4 -66 1 -89 -19 -15 -13 -30 -38 -33 -55
-5 -28 -2 -33 31 -52 20 -12 84 -36 143 -53 60 -17 119 -40 132 -51 14 -11 18
-16 10 -12 -12 6 -12 4 1 -12 33 -38 42 -85 30 -146 -15 -71 -39 -101 -104
-135 -68 -35 -188 -37 -259 -5 -48 21 -108 89 -108 123 0 41 11 49 65 49 30 0
57 -4 60 -10 3 -5 1 -10 -4 -10 -24 0 -8 -36 25 -57 50 -32 129 -39 174 -16
42 22 65 60 57 94 -12 46 -87 82 -287 138 -31 9 -70 81 -70 131 1 75 58 151
135 178 41 14 149 15 196 1z m-2456 -91 c16 -24 22 -38 14 -31 -15 12 -53 73
-46 73 2 0 17 -19 32 -42z m2975 -1677 c0 -6 -4 -13 -10 -16 -5 -3 -10 1 -10
9 0 9 5 16 10 16 6 0 10 -4 10 -9z m-47 -8 c-13 -2 -23 -8 -23 -12 0 -3 -9 -7
-20 -7 -11 0 -20 4 -20 9 0 5 -6 4 -13 -2 -13 -10 -27 -6 -27 9 0 4 28 7 63 7
34 1 52 -1 40 -4z m-125 -10 c-10 -2 -26 -2 -35 0 -10 3 -2 5 17 5 19 0 27 -2
18 -5z"/>
<path d="M4545 9079 c-33 -4 -78 -12 -100 -18 -35 -9 -32 -10 25 -5 36 4 110
12 165 19 94 12 96 13 35 12 -36 0 -92 -3 -125 -8z"/>
<path d="M1402 5100 c0 -14 2 -19 5 -12 2 6 2 18 0 25 -3 6 -5 1 -5 -13z"/>
<path d="M1422 4725 c0 -16 2 -22 5 -12 2 9 2 23 0 30 -3 6 -5 -1 -5 -18z"/>
<path d="M1491 4244 c0 -11 3 -14 6 -6 3 7 2 16 -1 19 -3 4 -6 -2 -5 -13z"/>
<path d="M1501 4204 c0 -11 3 -14 6 -6 3 7 2 16 -1 19 -3 4 -6 -2 -5 -13z"/>
<path d="M1511 4164 c0 -11 3 -14 6 -6 3 7 2 16 -1 19 -3 4 -6 -2 -5 -13z"/>
<path d="M1521 4120 c0 -8 4 -22 9 -30 12 -18 12 -2 0 25 -6 13 -9 15 -9 5z"/>
<path d="M1650 3705 c0 -5 5 -17 10 -25 5 -8 10 -10 10 -5 0 6 -5 17 -10 25
-5 8 -10 11 -10 5z"/>
<path d="M1681 3620 c0 -14 48 -112 49 -99 0 4 -11 31 -24 60 -14 30 -25 47
-25 39z"/>
<path d="M1770 3415 c0 -5 5 -17 10 -25 5 -8 10 -10 10 -5 0 6 -5 17 -10 25
-5 8 -10 11 -10 5z"/>
<path d="M5378 9073 c7 -3 16 -2 19 1 4 3 -2 6 -13 5 -11 0 -14 -3 -6 -6z"/>
<path d="M4926 8741 c-4 -5 -2 -12 3 -15 5 -4 12 -2 15 3 4 5 2 12 -3 15 -5 4
-12 2 -15 -3z"/>
<path d="M3935 7660 c-4 -6 -10 -8 -14 -5 -11 6 -56 -43 -48 -52 4 -3 24 10
44 30 20 21 34 37 30 37 -3 0 -9 -5 -12 -10z"/>
<path d="M7547 7249 c7 -7 15 -10 18 -7 3 3 -2 9 -12 12 -14 6 -15 5 -6 -5z"/>
<path d="M7545 7200 c3 -5 8 -10 11 -10 2 0 4 5 4 10 0 6 -5 10 -11 10 -5 0
-7 -4 -4 -10z"/>
<path d="M7505 7100 c3 -5 8 -10 11 -10 2 0 4 5 4 10 0 6 -5 10 -11 10 -5 0
-7 -4 -4 -10z"/>
<path d="M7545 6901 c-3 -5 -2 -12 3 -15 5 -3 9 1 9 9 0 17 -3 19 -12 6z"/>
<path d="M7525 6851 c-3 -5 -2 -12 3 -15 5 -3 9 1 9 9 0 17 -3 19 -12 6z"/>
<path d="M3019 6713 c-13 -16 -12 -17 4 -4 9 7 17 15 17 17 0 8 -8 3 -21 -13z"/>
<path d="M2985 6670 c-10 -11 -16 -22 -14 -24 2 -2 12 7 22 20 22 29 17 32 -8
4z"/>
<path d="M7560 6555 c0 -7 30 -13 34 -7 3 4 -4 9 -15 9 -10 1 -19 0 -19 -2z"/>
<path d="M2766 6249 c-9 -29 -14 -54 -12 -56 2 -3 11 19 20 48 8 29 13 55 11
57 -2 2 -11 -20 -19 -49z"/>
<path d="M7610 6215 c0 -8 29 -12 39 -5 9 5 4 8 -13 8 -14 0 -26 -2 -26 -3z"/>
<path d="M2746 6139 c-11 -54 -13 -79 -6 -79 4 0 10 21 13 48 6 50 1 70 -7 31z"/>
<path d="M2731 5993 c1 -62 6 -56 11 15 2 23 0 42 -4 42 -5 0 -7 -26 -7 -57z"/>
<path d="M3644 5295 c-18 -14 -18 -14 4 -8 12 3 22 9 22 14 0 12 -3 11 -26 -6z"/>
<path d="M6060 4381 c-125 -39 -215 -155 -239 -311 -24 -150 -6 -362 39 -456
26 -53 91 -119 144 -146 52 -27 143 -34 203 -17 131 36 212 216 213 469 0 86
-22 223 -47 293 -47 130 -188 206 -313 168z"/>
<path d="M4422 4328 c-6 -8 -11 -75 -11 -155 l-2 -143 159 0 c146 0 162 2 202
23 57 30 83 76 77 141 -4 42 -10 55 -44 87 -22 21 -58 42 -79 48 -56 16 -289
14 -302 -1z"/>
<path d="M3125 4302 c-28 -7 -30 -11 -37 -67 -6 -53 -10 -190 -9 -253 l1 -23
144 3 c128 3 148 5 173 24 60 45 92 119 79 188 -8 40 -52 100 -86 117 -28 13
-219 21 -265 11z"/>
<path d="M5886 2769 c-2 -8 -27 -77 -55 -154 -28 -77 -51 -142 -51 -145 0 -6
189 -1 207 5 8 3 -4 50 -39 152 -28 81 -52 150 -54 152 -2 2 -5 -2 -8 -10z"/>
</g>
</svg>
